<?xml version="1.0" encoding="UTF-8"?>
<!DOCTYPE svg PUBLIC "-//W3C//DTD SVG 1.1//EN" "http://www.w3.org/Graphics/SVG/1.1/DTD/svg11.dtd">
<!-- Creator: CorelDRAW X7 -->
<svg xmlns="http://www.w3.org/2000/svg" xml:space="preserve" width="4.5in" height="3.6in" version="1.1" style="shape-rendering:geometricPrecision; text-rendering:geometricPrecision; image-rendering:optimizeQuality; fill-rule:evenodd; clip-rule:evenodd"
viewBox="0 0 4500 3600"
 xmlns:xlink="http://www.w3.org/1999/xlink">
 <defs>
  <style type="text/css">
   <![CDATA[
    .str0 {stroke:#1F2634;stroke-width:13.8898}
    .fil6 {fill:none;fill-rule:nonzero}
    .fil1 {fill:#0C162D;fill-rule:nonzero}
    .fil3 {fill:#1F2634;fill-rule:nonzero}
    .fil2 {fill:#363B4D;fill-rule:nonzero}
    .fil4 {fill:#D38C21;fill-rule:nonzero}
    .fil5 {fill:#E9AC26;fill-rule:nonzero}
    .fil0 {fill:#F9F9FB;fill-rule:nonzero}
   ]]>
  </style>
 </defs>
 <g id="Layer_x0020_1">
  <metadata id="CorelCorpID_0Corel-Layer"/>
  <g id="_1807773577504">
   <path class="fil0" d="M242 2105c0,8 -6,14 -14,14 -8,0 -14,-6 -14,-14 0,-8 6,-14 14,-14 8,0 14,6 14,14z"/>
   <path class="fil0" d="M126 840c0,8 -6,14 -14,14 -7,0 -14,-6 -14,-14 0,-8 7,-14 14,-14 8,0 14,6 14,14z"/>
   <path class="fil0" d="M702 1995c0,7 -5,12 -11,12 -7,0 -12,-5 -12,-12 0,-6 5,-12 12,-12 6,0 11,6 11,12z"/>
   <path class="fil0" d="M363 1610c0,11 -9,19 -19,19 -11,0 -20,-8 -20,-19 0,-11 9,-19 20,-19 10,0 19,8 19,19z"/>
   <path class="fil0" d="M1866 1940c0,11 -8,19 -19,19 -11,0 -19,-8 -19,-19 0,-11 8,-19 19,-19 11,0 19,8 19,19z"/>
   <path class="fil0" d="M1166 1885c0,7 -6,13 -13,13 -7,0 -13,-6 -13,-13 0,-7 6,-13 13,-13 7,0 13,6 13,13z"/>
   <path class="fil0" d="M588 785c0,7 -6,13 -13,13 -7,0 -13,-6 -13,-13 0,-7 6,-13 13,-13 7,0 13,6 13,13z"/>
   <path class="fil0" d="M935 1225c0,7 -6,13 -13,13 -8,0 -13,-6 -13,-13 0,-7 5,-13 13,-13 7,0 13,6 13,13z"/>
   <path class="fil0" d="M821 1665c0,8 -7,15 -15,15 -8,0 -14,-7 -14,-15 0,-8 6,-15 14,-15 8,0 15,7 15,15z"/>
   <path class="fil0" d="M1963 991c7,0 13,6 13,14 0,8 -6,14 -13,14 -8,0 -14,-6 -14,-14 0,-8 6,-14 14,-14z"/>
   <path class="fil0" d="M1269 1101c7,0 14,6 14,14 0,8 -7,14 -14,14 -8,0 -14,-6 -14,-14 0,-8 6,-14 14,-14z"/>
   <path class="fil0" d="M2078 498c7,0 12,5 12,12 0,7 -5,12 -12,12 -6,0 -12,-5 -12,-12 0,-7 6,-12 12,-12z"/>
   <path class="fil0" d="M1731 1543c7,0 12,5 12,12 0,7 -5,12 -12,12 -6,0 -12,-5 -12,-12 0,-7 6,-12 12,-12z"/>
   <path class="fil0" d="M459 216c11,0 20,8 20,19 0,11 -9,19 -20,19 -10,0 -19,-8 -19,-19 0,-11 9,-19 19,-19z"/>
   <path class="fil0" d="M1500 167c7,0 13,6 13,13 0,7 -6,13 -13,13 -7,0 -13,-6 -13,-13 0,-7 6,-13 13,-13z"/>
   <path class="fil0" d="M1037 442c8,0 14,6 14,13 0,7 -6,13 -14,13 -7,0 -13,-6 -13,-13 0,-7 6,-13 13,-13z"/>
   <path class="fil0" d="M2194 1323c7,0 12,5 12,12 0,7 -5,12 -12,12 -7,0 -13,-5 -13,-12 0,-7 6,-12 13,-12z"/>
   <path class="fil0" d="M1384 1378c7,0 13,5 13,12 0,7 -6,12 -13,12 -6,0 -12,-5 -12,-12 0,-7 6,-12 12,-12z"/>
   <path class="fil0" d="M1616 550c8,0 14,7 14,15 0,8 -6,15 -14,15 -8,0 -15,-7 -15,-15 0,-8 7,-15 15,-15z"/>
   <path class="fil0" d="M4262 125c0,-8 6,-14 13,-14 8,0 14,6 14,14 0,8 -6,14 -14,14 -7,0 -13,-6 -13,-14z"/>
   <path class="fil0" d="M4377 1445c0,-8 6,-14 14,-14 8,0 14,6 14,14 0,8 -6,14 -14,14 -8,0 -14,-6 -14,-14z"/>
   <path class="fil0" d="M3801 290c0,-7 5,-12 12,-12 6,0 12,5 12,12 0,7 -6,12 -12,12 -7,0 -12,-5 -12,-12z"/>
   <path class="fil0" d="M4141 675c0,-11 8,-19 19,-19 10,0 19,8 19,19 0,11 -9,19 -19,19 -11,0 -19,-8 -19,-19z"/>
   <path class="fil0" d="M2637 345c0,-11 9,-19 19,-19 11,0 20,8 20,19 0,11 -9,19 -20,19 -10,0 -19,-8 -19,-19z"/>
   <path class="fil0" d="M3337 400c0,-7 6,-13 13,-13 8,0 14,6 14,13 0,7 -6,13 -14,13 -7,0 -13,-6 -13,-13z"/>
   <path class="fil0" d="M3915 1500c0,-7 6,-13 14,-13 7,0 13,6 13,13 0,7 -6,13 -13,13 -8,0 -14,-6 -14,-13z"/>
   <path class="fil0" d="M3684 1060c0,-7 6,-13 13,-13 8,0 13,6 13,13 0,7 -5,13 -13,13 -7,0 -13,-6 -13,-13z"/>
   <path class="fil0" d="M3567 620c0,-8 7,-15 15,-15 8,0 14,7 14,15 0,8 -6,15 -14,15 -8,0 -15,-7 -15,-15z"/>
   <path class="fil0" d="M2541 1294c-8,0 -14,-6 -14,-14 0,-8 6,-14 14,-14 7,0 14,6 14,14 0,8 -7,14 -14,14z"/>
   <path class="fil0" d="M3119 1184c-8,0 -14,-6 -14,-14 0,-8 6,-14 14,-14 8,0 14,6 14,14 0,8 -6,14 -14,14z"/>
   <path class="fil0" d="M2425 1787c-6,0 -12,-5 -12,-12 0,-7 6,-12 12,-12 7,0 12,5 12,12 0,7 -5,12 -12,12z"/>
   <path class="fil0" d="M2772 742c-7,0 -12,-5 -12,-12 0,-7 5,-12 12,-12 7,0 12,5 12,12 0,7 -5,12 -12,12z"/>
   <path class="fil0" d="M4044 2069c-10,0 -19,-8 -19,-19 0,-11 9,-19 19,-19 11,0 19,8 19,19 0,11 -8,19 -19,19z"/>
   <path class="fil0" d="M3003 2173c-7,0 -13,-6 -13,-13 0,-7 6,-13 13,-13 8,0 14,6 14,13 0,7 -6,13 -14,13z"/>
   <path class="fil0" d="M3466 1843c-7,0 -13,-6 -13,-13 0,-7 6,-13 13,-13 7,0 13,6 13,13 0,7 -6,13 -13,13z"/>
   <path class="fil0" d="M2310 962c-7,0 -13,-5 -13,-12 0,-7 6,-12 13,-12 6,0 12,5 12,12 0,7 -6,12 -12,12z"/>
   <path class="fil0" d="M3235 907c-7,0 -13,-5 -13,-12 0,-7 6,-12 13,-12 7,0 12,5 12,12 0,7 -5,12 -12,12z"/>
   <path class="fil0" d="M2888 1735c-8,0 -15,-7 -15,-15 0,-8 7,-15 15,-15 8,0 14,7 14,15 0,8 -6,15 -14,15z"/>
   <path class="fil1" d="M2522 2823c0,0 66,-96 16,-209 -48,-110 -224,-147 -282,-237l0 -20c24,-1 43,-12 43,-24 0,-13 -19,-23 -43,-24l0 -47 -9 0 0 47c-24,1 -43,11 -43,24 0,12 19,23 43,24l0 20c-58,90 -234,127 -282,237 -50,113 17,209 17,209l-68 0 0 774 174 0c-10,-60 -24,-179 -3,-283 29,-144 136,-137 167,-260 30,123 138,116 166,260 21,104 7,223 -2,283l173 0 0 -774 -67 0z"/>
   <path class="fil1" d="M2295 2253c55,-21 84,-78 73,-133 -3,32 -24,62 -56,74 -46,19 -99,-4 -117,-50 -19,-47 4,-99 51,-118 3,-1 6,-1 9,-2 -16,-1 -32,2 -47,8 -61,24 -91,93 -67,154 24,62 93,91 154,67z"/>
   <path class="fil1" d="M2873 2080c0,0 22,-32 6,-70 -17,-37 -76,-50 -95,-80l0 -7c8,0 14,-4 14,-8 0,-4 -6,-8 -14,-8l0 -16 -3 0 0 16c-8,0 -15,4 -15,8 0,4 7,8 15,8l0 7c-20,30 -79,43 -95,80 -17,38 5,70 5,70l-22 0 0 285 227 0 0 -285 -23 0zm-150 227l0 0c-1,-19 -1,-41 3,-62 10,-48 46,-46 56,-87 10,41 47,39 56,87 4,21 4,43 3,62l-118 0z"/>
   <path class="fil1" d="M2797 1888c18,-7 28,-26 24,-44 -1,10 -8,20 -18,25 -16,6 -34,-2 -40,-17 -6,-16 2,-34 17,-40 1,0 2,0 3,-1 -5,0 -10,1 -15,3 -21,8 -31,31 -23,52 8,21 31,31 52,22z"/>
   <path class="fil1" d="M2669 2365l0 219 0 33 0 56 227 0 0 -56 0 -33 0 -219 -227 0zm172 219l0 0 -118 0c-1,-19 -1,-41 3,-62 10,-48 46,-46 56,-87 10,41 47,39 56,87 4,21 4,43 3,62z"/>
   <path class="fil1" d="M2669 2673l0 219 0 33 0 56 227 0 0 -56 0 -33 0 -219 -227 0zm172 219l0 0 -118 0c-1,-19 -1,-41 3,-62 10,-48 46,-46 56,-87 10,41 47,39 56,87 4,21 4,43 3,62z"/>
   <path class="fil1" d="M2669 2981l0 219 0 33 0 56 227 0 0 -56 0 -33 0 -219 -227 0zm172 219l0 0 -118 0c-1,-19 -1,-41 3,-62 10,-48 46,-46 56,-87 10,41 47,39 56,87 4,21 4,43 3,62z"/>
   <polygon class="fil1" points="2589,3289 2589,3508 2589,3541 2589,3597 2940,3597 2940,3541 2940,3508 2940,3289 "/>
   <path class="fil1" d="M2968 2195l0 250 0 37 0 63 258 0 0 -63 0 -37 0 -250 -258 0zm196 250l0 0 -134 0c-2,-22 -2,-47 3,-71 11,-55 52,-52 64,-99 11,47 52,44 63,99 5,24 5,49 4,71z"/>
   <path class="fil1" d="M2968 2896l0 250 0 37 0 63 258 0 0 -63 0 -37 0 -250 -258 0zm196 250l0 0 -134 0c-2,-22 -2,-47 3,-71 11,-55 52,-52 64,-99 11,47 52,44 63,99 5,24 5,49 4,71z"/>
   <polygon class="fil1" points="2917,3246 2917,3496 2917,3534 2917,3597 3276,3597 3276,3534 3276,3496 3276,3246 "/>
   <path class="fil1" d="M3200 1871c0,0 25,-36 6,-80 -18,-42 -85,-56 -108,-90l0 -8c10,0 17,-4 17,-9 0,-5 -7,-9 -17,-9l0 -97 -3 0 0 97c-9,0 -16,4 -16,9 0,5 7,9 16,9l0 8c-22,34 -90,48 -108,90 -19,44 6,80 6,80l-25 0 0 324 258 0 0 -324 -26 0zm-168 271l0 0 -25 0 0 -216 25 0 0 216zm51 0l0 0 -24 0 0 -216 24 0 0 216zm52 0l0 0 -25 0 0 -216 25 0 0 216zm51 0l0 0 -25 0 0 -216 25 0 0 216z"/>
   <path class="fil1" d="M2968 2545l0 251 0 37 0 63 258 0 0 -63 0 -37 0 -251 -258 0zm64 294l0 0 -25 0 0 -216 25 0 0 216zm51 0l0 0 -24 0 0 -216 24 0 0 216zm52 0l0 0 -25 0 0 -216 25 0 0 216zm51 0l0 0 -25 0 0 -216 25 0 0 216z"/>
   <path class="fil1" d="M3097 1589c-7,0 -12,-5 -12,-11 0,-7 5,-12 12,-12 6,0 11,5 11,12 0,6 -5,11 -11,11z"/>
   <path class="fil1" d="M3236 2896l0 250 0 37 0 63 259 0 0 -63 0 -37 0 -250 -259 0zm197 250l0 0 -134 0c-2,-22 -2,-47 3,-71 11,-55 52,-52 64,-99 11,47 52,44 63,99 5,24 5,49 4,71z"/>
   <polygon class="fil1" points="3186,3246 3186,3496 3186,3534 3186,3597 3545,3597 3545,3534 3545,3496 3545,3246 "/>
   <path class="fil1" d="M3469 2222c0,0 25,-37 6,-80 -18,-42 -86,-56 -108,-91l0 -8c9,0 17,-4 17,-9 0,-5 -8,-9 -17,-9l0 -97 -3 0 0 97c-9,0 -16,4 -16,9 0,5 7,9 16,9l0 8c-22,35 -90,49 -108,91 -19,43 6,80 6,80l-26 0 0 323 259 0 0 -323 -26 0zm-168 270l0 0 -25 0 0 -216 25 0 0 216zm51 0l0 0 -24 0 0 -216 24 0 0 216zm52 0l0 0 -25 0 0 -216 25 0 0 216zm51 0l0 0 -25 0 0 -216 25 0 0 216z"/>
   <path class="fil1" d="M3236 2545l0 251 0 37 0 63 259 0 0 -63 0 -37 0 -251 -259 0zm65 294l0 0 -25 0 0 -216 25 0 0 216zm51 0l0 0 -24 0 0 -216 24 0 0 216zm52 0l0 0 -25 0 0 -216 25 0 0 216zm51 0l0 0 -25 0 0 -216 25 0 0 216z"/>
   <path class="fil1" d="M3366 1940c-7,0 -12,-5 -12,-12 0,-6 5,-12 12,-12 6,0 11,6 11,12 0,7 -5,12 -11,12z"/>
   <path class="fil1" d="M3981 2882c0,0 24,-92 6,-133 -18,-40 -82,-54 -102,-86l0 -7c8,-1 15,-5 15,-9 0,-5 -7,-9 -15,-9l0 -92 -4 0 0 92c-9,0 -15,4 -15,9 0,4 6,8 15,9l0 7c-21,32 -85,46 -102,86 -18,41 6,133 6,133l-24 0 0 249 244 0 0 -249 -24 0zm-159 198l0 0 -24 0 0 -129 24 0 0 129zm48 0l0 0 -23 0 0 -129 23 0 0 129zm49 0l0 0 -24 0 0 -129 24 0 0 129zm48 0l0 0 -23 0 0 -129 23 0 0 129z"/>
   <path class="fil1" d="M3544 3131l0 466 678 0 0 -466 -678 0zm194 347l0 0 -102 0 0 -130c0,-28 23,-51 51,-51 28,0 51,23 51,51l0 130zm196 0l0 0 -103 0 0 -130c0,-28 23,-51 52,-51 28,0 51,23 51,51l0 130zm196 0l0 0 -103 0 0 -130c0,-28 23,-51 52,-51 28,0 51,23 51,51l0 130z"/>
   <polygon class="fil1" points="3585,3131 3544,3131 3544,2980 3585,2980 "/>
   <polygon class="fil1" points="3722,3131 3681,3131 3681,2980 3722,2980 "/>
   <polygon class="fil1" points="3653,3131 3613,3131 3613,2980 3653,2980 "/>
   <polygon class="fil1" points="4084,3131 4044,3131 4044,2980 4084,2980 "/>
   <polygon class="fil1" points="4222,3131 4181,3131 4181,2980 4222,2980 "/>
   <polygon class="fil1" points="4153,3131 4113,3131 4113,2980 4153,2980 "/>
   <path class="fil1" d="M1608 2080l0 285 227 0 0 -285 -23 0c0,0 22,-32 6,-70 -17,-37 -76,-50 -95,-80l0 -7c8,0 14,-4 14,-8 0,-4 -6,-8 -14,-8l0 -16 -3 0 0 16c-8,0 -15,4 -15,8 0,4 7,8 15,8l0 7c-20,30 -79,43 -95,80 -17,38 5,70 5,70l-22 0zm54 227l0 0c-1,-19 -1,-41 3,-62 10,-48 46,-46 56,-87 10,41 47,39 56,87 4,21 4,43 3,62l-118 0z"/>
   <path class="fil1" d="M1706 1888c-18,-7 -28,-26 -24,-44 1,10 8,20 19,25 15,6 33,-2 39,-17 6,-16 -1,-34 -17,-40 -1,0 -2,0 -3,-1 5,0 11,1 16,3 20,8 30,31 22,52 -8,21 -31,31 -52,22z"/>
   <path class="fil1" d="M1608 2365l0 219 0 33 0 56 227 0 0 -56 0 -33 0 -219 -227 0zm57 157l0 0c10,-48 46,-46 56,-87 10,41 47,39 56,87 4,21 4,43 3,62l-118 0c-1,-19 -1,-41 3,-62z"/>
   <path class="fil1" d="M1608 2673l0 219 0 33 0 56 227 0 0 -56 0 -33 0 -219 -227 0zm57 157l0 0c10,-48 46,-46 56,-87 10,41 47,39 56,87 4,21 4,43 3,62l-118 0c-1,-19 -1,-41 3,-62z"/>
   <path class="fil1" d="M1608 2981l0 219 0 33 0 56 227 0 0 -56 0 -33 0 -219 -227 0zm57 157l0 0c10,-48 46,-46 56,-87 10,41 47,39 56,87 4,21 4,43 3,62l-118 0c-1,-19 -1,-41 3,-62z"/>
   <polygon class="fil1" points="1914,3289 1914,3508 1914,3541 1914,3597 1563,3597 1563,3541 1563,3508 1563,3289 "/>
   <path class="fil1" d="M1278 2195l0 250 0 37 0 63 258 0 0 -63 0 -37 0 -250 -258 0zm65 179l0 0c11,-55 52,-52 64,-99 11,47 52,44 63,99 5,24 5,49 4,71l-134 0c-2,-22 -2,-47 3,-71z"/>
   <path class="fil1" d="M1278 2896l0 250 0 37 0 63 258 0 0 -63 0 -37 0 -250 -258 0zm65 179l0 0c11,-55 52,-52 64,-99 11,47 52,44 63,99 5,24 5,49 4,71l-134 0c-2,-22 -2,-47 3,-71z"/>
   <polygon class="fil1" points="1586,3246 1586,3496 1586,3534 1586,3597 1227,3597 1227,3534 1227,3496 1227,3246 "/>
   <path class="fil1" d="M1278 1871l0 324 258 0 0 -324 -26 0c0,0 25,-36 6,-80 -18,-42 -85,-56 -107,-90l0 -8c9,0 16,-4 16,-9 0,-5 -7,-9 -16,-9l0 -97 -4 0 0 97c-9,0 -16,4 -16,9 0,5 7,9 16,9l0 8c-22,34 -89,48 -108,90 -19,44 6,80 6,80l-25 0zm193 55l0 0 25 0 0 216 -25 0 0 -216zm-51 0l0 0 25 0 0 216 -25 0 0 -216zm-51 0l0 0 25 0 0 216 -25 0 0 -216zm-51 0l0 0 24 0 0 216 -24 0 0 -216z"/>
   <path class="fil1" d="M1278 2545l0 251 0 37 0 63 258 0 0 -63 0 -37 0 -251 -258 0zm193 78l0 0 25 0 0 216 -25 0 0 -216zm-51 0l0 0 25 0 0 216 -25 0 0 -216zm-51 0l0 0 25 0 0 216 -25 0 0 -216zm-51 0l0 0 24 0 0 216 -24 0 0 -216z"/>
   <path class="fil1" d="M1407 1589c6,0 12,-5 12,-11 0,-7 -6,-12 -12,-12 -7,0 -12,5 -12,12 0,6 5,11 12,11z"/>
   <path class="fil1" d="M1009 2896l0 250 0 37 0 63 258 0 0 -63 0 -37 0 -250 -258 0zm65 179l0 0c11,-55 52,-52 64,-99 11,47 53,44 64,99 4,24 4,49 3,71l-134 0c-2,-22 -2,-47 3,-71z"/>
   <polygon class="fil1" points="1318,3246 1318,3496 1318,3534 1318,3597 958,3597 958,3534 958,3496 958,3246 "/>
   <path class="fil1" d="M1009 2222l0 323 258 0 0 -323 -26 0c0,0 25,-37 6,-80 -18,-42 -85,-56 -107,-91l0 -8c9,0 16,-4 16,-9 0,-5 -7,-9 -16,-9l0 -97 -4 0 0 97c-9,0 -16,4 -16,9 0,5 7,9 16,9l0 8c-22,35 -89,49 -108,91 -19,43 7,80 7,80l-26 0zm193 54l0 0 25 0 0 216 -25 0 0 -216zm-51 0l0 0 25 0 0 216 -25 0 0 -216zm-51 0l0 0 25 0 0 216 -25 0 0 -216zm-51 0l0 0 24 0 0 216 -24 0 0 -216z"/>
   <path class="fil1" d="M1009 2545l0 251 0 37 0 63 258 0 0 -63 0 -37 0 -251 -258 0zm193 78l0 0 25 0 0 216 -25 0 0 -216zm-51 0l0 0 25 0 0 216 -25 0 0 -216zm-51 0l0 0 25 0 0 216 -25 0 0 -216zm-51 0l0 0 24 0 0 216 -24 0 0 -216z"/>
   <path class="fil1" d="M1138 1940c6,0 12,-5 12,-12 0,-6 -6,-12 -12,-12 -7,0 -12,6 -12,12 0,7 5,12 12,12z"/>
   <path class="fil1" d="M498 2882l0 249 245 0 0 -249 -25 0c0,0 24,-92 6,-133 -17,-40 -81,-54 -102,-86l0 -7c9,-1 16,-5 16,-9 0,-5 -7,-9 -16,-9l0 -92 -3 0 0 92c-9,0 -16,4 -16,9 0,4 7,8 16,9l0 7c-21,32 -85,46 -102,86 -18,41 6,133 6,133l-25 0zm184 69l0 0 23 0 0 129 -23 0 0 -129zm-49 0l0 0 24 0 0 129 -24 0 0 -129zm-48 0l0 0 23 0 0 129 -23 0 0 -129zm-49 0l0 0 24 0 0 129 -24 0 0 -129z"/>
   <path class="fil1" d="M282 3131l0 466 677 0 0 -466 -677 0zm483 217l0 0c0,-28 23,-51 51,-51 29,0 52,23 52,51l0 130 -103 0 0 -130zm-196 0l0 0c0,-28 23,-51 52,-51 28,0 51,23 51,51l0 130 -103 0 0 -130zm-196 0l0 0c0,-28 23,-51 52,-51 28,0 51,23 51,51l0 130 -103 0 0 -130z"/>
   <polygon class="fil1" points="919,3131 959,3131 959,2980 919,2980 "/>
   <polygon class="fil1" points="782,3131 822,3131 822,2980 782,2980 "/>
   <polygon class="fil1" points="850,3131 891,3131 891,2980 850,2980 "/>
   <polygon class="fil1" points="419,3131 459,3131 459,2980 419,2980 "/>
   <polygon class="fil1" points="282,3131 322,3131 322,2980 282,2980 "/>
   <polygon class="fil1" points="350,3131 391,3131 391,2980 350,2980 "/>
   <polygon class="fil2" points="4117,1535 3856,1535 3856,1514 4117,1514 "/>
   <polygon class="fil3" points="4117,1535 3856,1535 3856,1527 4117,1527 "/>
   <path class="fil4" d="M3925 1445c-31,0 -62,69 -62,69l62 0 24 -69 -24 0z"/>
   <path class="fil4" d="M4046 1445c32,0 63,69 63,69l-63 0 -23 -69 23 0z"/>
   <polygon class="fil5" points="4010,1445 3986,1445 3961,1445 3940,1514 3986,1514 4032,1514 "/>
   <polygon class="fil3" points="4051,1445 3922,1445 3922,1425 4051,1425 "/>
   <polygon class="fil2" points="4072,1425 3900,1425 3900,1411 4072,1411 "/>
   <polygon class="fil2" points="3856,1737 4117,1737 4117,1757 3856,1757 "/>
   <path class="fil4" d="M4047 1826c32,0 63,-69 63,-69l-63 0 -23 69 23 0z"/>
   <path class="fil4" d="M3927 1826c-32,0 -63,-69 -63,-69l63 0 23 69 -23 0z"/>
   <polygon class="fil5" points="3962,1826 3987,1826 4012,1826 4033,1757 3987,1757 3941,1757 "/>
   <polygon class="fil3" points="3922,1826 4051,1826 4051,1847 3922,1847 "/>
   <polygon class="fil2" points="3900,1847 4072,1847 4072,1861 3900,1861 "/>
   <polygon class="fil2" points="3990,1421 3983,1421 3983,1307 3990,1307 "/>
   <path class="fil2" d="M3998 1336c0,7 -5,12 -12,12 -6,0 -12,-5 -12,-12 0,-7 6,-12 12,-12 7,0 12,5 12,12z"/>
   <path class="fil2" d="M3986 1315c-17,0 -31,-14 -31,-31 0,-18 14,-31 31,-31 17,0 31,13 31,31 0,17 -14,31 -31,31zm0 -54l0 0c-12,0 -22,10 -22,23 0,12 10,22 22,22 12,0 22,-10 22,-22 0,-13 -10,-23 -22,-23z"/>
   <path class="fil2" d="M3998 1380c0,6 -5,12 -12,12 -6,0 -12,-6 -12,-12 0,-7 6,-13 12,-13 7,0 12,6 12,13z"/>
   <polygon class="fil5" points="4032,1737 3940,1737 3940,1535 4032,1535 "/>
   <polygon class="fil4" points="3926,1737 3863,1737 3863,1535 3926,1535 "/>
   <polygon class="fil4" points="4109,1737 4046,1737 4046,1535 4109,1535 "/>
   <polygon class="fil3" points="4117,1745 3856,1745 3856,1737 4117,1737 "/>
   <polygon class="fil3" points="3949,1445 3925,1514 3925,1737 3925,1757 3950,1826 3962,1826 3941,1757 3941,1514 3961,1445 "/>
   <polygon class="fil3" points="4022,1445 4046,1514 4046,1737 4046,1757 4021,1826 4009,1826 4030,1757 4030,1514 4010,1445 "/>
   <line class="fil6 str0" x1="3986" y1="1253" x2="3986" y2= "23" />
   <polygon class="fil2" points="3040,706 2712,706 2712,681 3040,681 "/>
   <polygon class="fil3" points="3040,706 2712,706 2712,696 3040,696 "/>
   <path class="fil4" d="M2799 594c-39,0 -78,87 -78,87l78 0 30 -87 -30 0z"/>
   <path class="fil4" d="M2951 594c40,0 78,87 78,87l-78 0 -29 -87 29 0z"/>
   <polygon class="fil5" points="2906,594 2875,594 2844,594 2817,681 2875,681 2933,681 "/>
   <polygon class="fil3" points="2957,594 2795,594 2795,568 2957,568 "/>
   <polygon class="fil2" points="2984,568 2768,568 2768,551 2984,551 "/>
   <polygon class="fil2" points="2712,960 3040,960 3040,985 2712,985 "/>
   <path class="fil4" d="M2952 1072c40,0 79,-87 79,-87l-79 0 -29 87 29 0z"/>
   <path class="fil4" d="M2801 1072c-40,0 -78,-87 -78,-87l78 0 29 87 -29 0z"/>
   <polygon class="fil5" points="2846,1072 2877,1072 2908,1072 2935,985 2877,985 2819,985 "/>
   <polygon class="fil3" points="2795,1072 2957,1072 2957,1098 2795,1098 "/>
   <polygon class="fil2" points="2768,1098 2984,1098 2984,1115 2768,1115 "/>
   <polygon class="fil2" points="2880,563 2872,563 2872,421 2880,421 "/>
   <path class="fil2" d="M2891 457c0,8 -7,15 -15,15 -8,0 -15,-7 -15,-15 0,-9 7,-15 15,-15 8,0 15,6 15,15z"/>
   <path class="fil2" d="M2876 430c-22,0 -39,-17 -39,-39 0,-21 17,-39 39,-39 21,0 39,18 39,39 0,22 -18,39 -39,39zm0 -66l0 0c-15,0 -28,12 -28,27 0,16 13,28 28,28 15,0 28,-12 28,-28 0,-15 -13,-27 -28,-27z"/>
   <path class="fil2" d="M2891 512c0,8 -7,15 -15,15 -8,0 -15,-7 -15,-15 0,-9 7,-15 15,-15 8,0 15,6 15,15z"/>
   <polygon class="fil5" points="2933,960 2817,960 2817,706 2933,706 "/>
   <polygon class="fil4" points="2800,960 2721,960 2721,706 2800,706 "/>
   <polygon class="fil4" points="3029,960 2950,960 2950,706 3029,706 "/>
   <polygon class="fil3" points="3040,970 2712,970 2712,960 3040,960 "/>
   <polygon class="fil3" points="2829,594 2799,681 2799,960 2799,985 2830,1072 2846,1072 2819,985 2819,681 2844,594 "/>
   <polygon class="fil3" points="2921,594 2950,681 2950,960 2950,985 2920,1072 2904,1072 2931,985 2931,681 2906,594 "/>
   <line class="fil6 str0" x1="2876" y1="352" x2="2876" y2= "23" />
   <polygon class="fil2" points="387,1535 648,1535 648,1514 387,1514 "/>
   <polygon class="fil3" points="387,1535 648,1535 648,1527 387,1527 "/>
   <path class="fil4" d="M578 1445c32,0 63,69 63,69l-63 0 -23 -69 23 0z"/>
   <path class="fil4" d="M457 1445c-31,0 -62,69 -62,69l62 0 24 -69 -24 0z"/>
   <polygon class="fil5" points="493,1445 518,1445 543,1445 564,1514 518,1514 472,1514 "/>
   <polygon class="fil3" points="453,1445 582,1445 582,1425 453,1425 "/>
   <polygon class="fil2" points="431,1425 603,1425 603,1411 431,1411 "/>
   <polygon class="fil2" points="648,1737 387,1737 387,1757 648,1757 "/>
   <path class="fil4" d="M456 1826c-32,0 -62,-69 -62,-69l62 0 24 69 -24 0z"/>
   <path class="fil4" d="M577 1826c32,0 62,-69 62,-69l-62 0 -24 69 24 0z"/>
   <polygon class="fil5" points="541,1826 516,1826 492,1826 470,1757 516,1757 563,1757 "/>
   <polygon class="fil3" points="582,1826 453,1826 453,1847 582,1847 "/>
   <polygon class="fil2" points="603,1847 431,1847 431,1861 603,1861 "/>
   <polygon class="fil2" points="514,1421 520,1421 520,1307 514,1307 "/>
   <path class="fil2" d="M505 1336c0,7 5,12 12,12 7,0 12,-5 12,-12 0,-7 -5,-12 -12,-12 -7,0 -12,5 -12,12z"/>
   <path class="fil2" d="M486 1284c0,-18 14,-31 31,-31 17,0 31,13 31,31 0,17 -14,31 -31,31 -17,0 -31,-14 -31,-31zm9 0l0 0c0,12 10,22 22,22 12,0 22,-10 22,-22 0,-13 -10,-23 -22,-23 -12,0 -22,10 -22,23z"/>
   <path class="fil2" d="M505 1380c0,6 5,12 12,12 7,0 12,-6 12,-12 0,-7 -5,-13 -12,-13 -7,0 -12,6 -12,13z"/>
   <polygon class="fil5" points="472,1737 564,1737 564,1535 472,1535 "/>
   <polygon class="fil4" points="578,1737 641,1737 641,1535 578,1535 "/>
   <polygon class="fil4" points="395,1737 458,1737 458,1535 395,1535 "/>
   <polygon class="fil3" points="387,1745 648,1745 648,1737 387,1737 "/>
   <polygon class="fil3" points="555,1445 578,1514 578,1737 578,1757 553,1826 541,1826 563,1757 563,1514 543,1445 "/>
   <polygon class="fil3" points="481,1445 458,1514 458,1737 458,1757 482,1826 494,1826 473,1757 473,1514 493,1445 "/>
   <line class="fil6 str0" x1="517" y1="1253" x2="517" y2= "23" />
   <polygon class="fil2" points="1464,706 1791,706 1791,681 1464,681 "/>
   <polygon class="fil3" points="1464,706 1791,706 1791,696 1464,696 "/>
   <path class="fil4" d="M1704 594c40,0 78,87 78,87l-78 0 -29 -87 29 0z"/>
   <path class="fil4" d="M1553 594c-40,0 -79,87 -79,87l79 0 29 -87 -29 0z"/>
   <polygon class="fil5" points="1597,594 1628,594 1659,594 1686,681 1628,681 1571,681 "/>
   <polygon class="fil3" points="1546,594 1708,594 1708,568 1546,568 "/>
   <polygon class="fil2" points="1519,568 1736,568 1736,551 1519,551 "/>
   <polygon class="fil2" points="1791,960 1464,960 1464,985 1791,985 "/>
   <path class="fil4" d="M1551 1072c-40,0 -79,-87 -79,-87l79 0 29 87 -29 0z"/>
   <path class="fil4" d="M1702 1072c40,0 79,-87 79,-87l-79 0 -29 87 29 0z"/>
   <polygon class="fil5" points="1658,1072 1627,1072 1595,1072 1569,985 1627,985 1684,985 "/>
   <polygon class="fil3" points="1708,1072 1546,1072 1546,1098 1708,1098 "/>
   <polygon class="fil2" points="1736,1098 1519,1098 1519,1115 1736,1115 "/>
   <polygon class="fil2" points="1623,563 1632,563 1632,421 1623,421 "/>
   <path class="fil2" d="M1612 457c0,8 7,15 15,15 9,0 16,-7 16,-15 0,-9 -7,-15 -16,-15 -8,0 -15,6 -15,15z"/>
   <path class="fil2" d="M1588 391c0,-21 18,-39 39,-39 22,0 39,18 39,39 0,22 -17,39 -39,39 -21,0 -39,-17 -39,-39zm12 0l0 0c0,16 12,28 27,28 16,0 28,-12 28,-28 0,-15 -12,-27 -28,-27 -15,0 -27,12 -27,27z"/>
   <path class="fil2" d="M1612 512c0,8 7,15 15,15 9,0 16,-7 16,-15 0,-9 -7,-15 -16,-15 -8,0 -15,6 -15,15z"/>
   <polygon class="fil5" points="1571,960 1686,960 1686,706 1571,706 "/>
   <polygon class="fil4" points="1704,960 1782,960 1782,706 1704,706 "/>
   <polygon class="fil4" points="1474,960 1553,960 1553,706 1474,706 "/>
   <polygon class="fil3" points="1464,970 1791,970 1791,960 1464,960 "/>
   <polygon class="fil3" points="1675,594 1704,681 1704,960 1704,985 1673,1072 1658,1072 1684,985 1684,681 1659,594 "/>
   <polygon class="fil3" points="1582,594 1553,681 1553,960 1553,985 1584,1072 1599,1072 1573,985 1573,681 1597,594 "/>
   <line class="fil6 str0" x1="1627" y1="352" x2="1627" y2= "23" />
   <polygon class="fil5" points="2252,776 2288,888 2405,888 2310,957 2347,1068 2252,999 2157,1068 2193,957 2098,888 2215,888 "/>
  </g>
 </g>
</svg>
